<?xml version="1.0" encoding="UTF-8" standalone="no"?>
<svg
   width="256"
   height="256"
   fill="none"
   viewBox="0 0 256 256"
   version="1.1"
   id="svg1"
   sodipodi:docname="ESP-IDF.svg"
   inkscape:version="1.4.2 (f4327f4, 2025-05-13)"
   xmlns:inkscape="http://www.inkscape.org/namespaces/inkscape"
   xmlns:sodipodi="http://sodipodi.sourceforge.net/DTD/sodipodi-0.dtd"
   xmlns="http://www.w3.org/2000/svg"
   xmlns:svg="http://www.w3.org/2000/svg">
  <defs
     id="defs1" />
  <sodipodi:namedview
     id="namedview1"
     pagecolor="#ffffff"
     bordercolor="#000000"
     borderopacity="0.25"
     inkscape:showpageshadow="2"
     inkscape:pageopacity="0.0"
     inkscape:pagecheckerboard="0"
     inkscape:deskcolor="#d1d1d1"
     showgrid="false"
     inkscape:zoom="1.1559539"
     inkscape:cx="67.909285"
     inkscape:cy="112.02869"
     inkscape:window-width="1920"
     inkscape:window-height="1017"
     inkscape:window-x="-8"
     inkscape:window-y="-8"
     inkscape:window-maximized="1"
     inkscape:current-layer="svg1" />
  <rect
     width="256"
     height="256"
     fill="#E43717"
     rx="60"
     id="rect1"
     style="fill:#ff3034;fill-opacity:1" />
  <path
     id="XMLID_28_"
     style="fill:#ffffff;stroke-width:2.15751"
     class="st0"
     d="m 136.09068,27.46062 c -3.23627,0 -6.25764,0.214069 -9.49391,0.429818 l -2.15751,6.042728 c 45.09207,15.749859 80.90767,51.566298 96.87328,96.658374 l 6.04273,-2.15752 C 227.78677,125.62925 228,122.60621 228,119.36993 228,68.668319 186.79229,27.46062 136.09068,27.46062 Z M 93.3744,38.248197 c -7.551304,3.883528 -14.455354,9.062402 -20.496397,14.887694 v 13.589823 c 64.078207,0 116.071807,51.997806 116.071807,116.076026 h 13.59403 c 5.82529,-6.04105 10.78842,-12.94509 14.8877,-20.49639 C 208.36997,98.22712 157.45261,47.309758 93.3744,38.248197 Z m -30.529685,2.751676 c -1.078758,0 -2.156675,0.378406 -2.911805,1.133537 -20.496396,20.712142 -31.932913,48.110063 -31.932913,77.23652 0,29.12646 11.220766,56.5286 31.932913,77.24075 20.712149,20.49639 48.11007,31.9287 77.23652,31.9287 29.12647,0 56.5286,-11.43231 77.24075,-31.9287 1.51026,-1.51026 1.51026,-4.31756 0,-5.82782 -1.51027,-1.51025 -4.31756,-1.51025 -5.82782,0 -19.20189,18.98614 -44.44397,29.56049 -71.41293,29.56049 -26.96894,0 -52.426775,-10.57435 -71.412911,-29.56049 -18.986136,-19.20188 -29.556278,-44.44398 -29.556278,-71.41293 0,-26.968941 10.570142,-52.426781 29.556278,-71.412918 1.510261,-1.510261 1.510261,-4.313341 0,-5.823602 -0.75513,-0.755131 -1.833047,-1.133537 -2.911804,-1.133537 z m 16.181366,37.621669 c -2.858709,0.02697 -5.503348,0.294975 -7.660863,0.834354 -15.534111,3.883528 -26.968943,17.906534 -26.968943,34.735164 0,15.96561 10.356074,29.55964 24.811428,34.09043 2.80477,0.86301 6.906573,1.29283 9.064088,1.50858 15.749864,2.80477 27.828589,16.61455 27.828589,33.01167 0,6.6883 -1.94177,12.94593 -5.39379,18.12397 l 11.43651,7.33639 c 5.60954,1.51027 11.21992,2.37074 17.04521,2.80225 3.66778,-6.68829 6.0402,-14.02216 6.68746,-22.00497 2.15752,-22.86967 -7.98197,-44.01417 -25.02634,-56.95926 -9.06156,-6.90405 -19.850822,-11.22077 -31.932908,-12.51528 -3.236273,-0.4315 -5.39463,-3.01715 -5.178878,-6.25342 0.215751,-2.80478 2.592383,-4.96313 5.612905,-5.17888 h 0.64473 c 12.945093,1.29451 25.029701,5.82529 34.954271,12.94509 21.57516,14.88686 34.73348,40.9928 31.92871,69.0405 -0.4315,4.53079 -1.29282,8.63007 -2.58734,12.94509 l 16.61119,4.74485 c 4.96229,-1.51025 9.71134,-3.23626 14.45787,-5.39378 1.07876,-6.25679 1.9384,-12.94425 1.9384,-19.63255 0,-52.64339 -38.83191,-96.225201 -89.317769,-103.560754 -3.020521,-0.431503 -6.095822,-0.646413 -8.95453,-0.619444 z m 0.969198,84.332738 c -7.767055,0 -14.023849,6.25679 -14.023849,14.02386 0,7.76705 6.256794,14.02385 14.023849,14.02385 7.767056,0 14.023851,-6.2568 14.023851,-14.02385 0,-7.76707 -6.256795,-14.02386 -14.023851,-14.02386 z" />
</svg>
