<?xml version="1.0" encoding="UTF-8" standalone="no"?>
<svg
   width="256"
   height="256"
   fill="none"
   viewBox="0 0 256 256"
   version="1.1"
   id="svg1"
   sodipodi:docname="Helix.svg"
   inkscape:version="1.4.2 (f4327f4, 2025-05-13)"
   xmlns:inkscape="http://www.inkscape.org/namespaces/inkscape"
   xmlns:sodipodi="http://sodipodi.sourceforge.net/DTD/sodipodi-0.dtd"
   xmlns="http://www.w3.org/2000/svg"
   xmlns:svg="http://www.w3.org/2000/svg">
  <defs
     id="defs1" />
  <sodipodi:namedview
     id="namedview1"
     pagecolor="#ffffff"
     bordercolor="#000000"
     borderopacity="0.25"
     inkscape:showpageshadow="2"
     inkscape:pageopacity="0.0"
     inkscape:pagecheckerboard="0"
     inkscape:deskcolor="#d1d1d1"
     showgrid="false"
     inkscape:zoom="0.90509668"
     inkscape:cx="29.27864"
     inkscape:cy="244.72524"
     inkscape:window-width="1920"
     inkscape:window-height="1017"
     inkscape:window-x="-8"
     inkscape:window-y="-8"
     inkscape:window-maximized="1"
     inkscape:current-layer="svg1" />
  <rect
     width="256"
     height="256"
     fill="#E43717"
     rx="60"
     id="rect1"
     style="fill:#281733;fill-opacity:1" />
  <g
     id="g5"
     style="clip-rule:evenodd;fill-rule:evenodd;stroke-linejoin:round;stroke-miterlimit:2"
     transform="matrix(0.22130748,0,0,0.22130748,-82.470717,19.68548)">
    <path
       d="m 1083.58,1875.72 551.48,318.4 a 47.66,47.66 0 0 1 23.82,41.27 v 105.94 c 0,8.51 -2.27,16.7 -6.38,23.83 0,0 -437.8,-252.76 -545.3,-314.83 a 47.245,47.245 0 0 1 -23.62,-40.92 z"
       style="fill:#706bc8"
       transform="translate(-420.199,-1838.15)"
       id="path1" />
    <path
       d="m 1635.26,2604.84 a 47.228,47.228 0 0 1 23.62,40.91 v 133.69 l -551.47,-318.39 a 47.66,47.66 0 0 1 -23.83,-41.27 v -105.94 c 0,-8.52 2.27,-16.71 6.38,-23.83 0,0 437.8,252.76 545.3,314.83"
       style="fill:#55c5e4"
       transform="translate(-420.199,-1838.15)"
       id="path2" />
    <path
       d="m 790.407,1432.56 a 35.033,35.033 0 0 0 -12.898,12.9 c -9.647,16.7 -4.036,38.3 12.495,48.13 h -0.006 l -28.825,-16.64 a 47.644,47.644 0 0 1 -23.829,-41.27 v -105.94 c 0,-17.03 9.083,-32.76 23.829,-41.27 l 498.417,-287.73 0.24,-0.14 a 34.962,34.962 0 0 0 12.65,-12.756 c 9.65,-16.708 4.04,-38.3 -12.49,-48.137 h 0.01 l 28.82,16.642 a 47.648,47.648 0 0 1 23.83,41.273 v 105.938 c 0,17.03 -9.08,32.76 -23.83,41.27 l -29.63,17.11 0.4,-0.26 z"
       style="fill:#84ddea"
       transform="translate(-73.964,-854.054)"
       id="path3" />
    <path
       d="m 790.407,1686.24 a 35.08,35.08 0 0 0 -12.898,12.89 c -9.647,16.71 -4.036,38.3 12.495,48.14 h -0.006 l -28.825,-16.64 a 47.656,47.656 0 0 1 -23.829,-41.27 v -105.94 c 0,-17.03 9.083,-32.76 23.829,-41.27 l 498.417,-287.73 0.24,-0.14 c 5.09,-2.99 9.5,-7.29 12.65,-12.76 9.65,-16.71 4.04,-38.3 -12.49,-48.14 h 0.01 l 28.82,16.65 a 47.636,47.636 0 0 1 23.83,41.27 v 105.94 c 0,17.02 -9.08,32.76 -23.83,41.27 l -29.63,17.1 0.4,-0.25 z"
       style="fill:#997bc8"
       transform="translate(-73.964,-854.054)"
       id="path4" />
  </g>
</svg>
