<?xml version="1.0" encoding="UTF-8"?>
<svg width="71.49mm" height="71.49mm" version="1.1" viewBox="0 0 71.49 71.49" xml:space="preserve" xmlns="http://www.w3.org/2000/svg"><g transform="translate(-240.53 -343.16)"><path transform="matrix(.95384 0 0 1 133.72 -86.819)" d="m126.86 429.98c-1.237-0.035-2.3219 0.33834-3.2276 1.1665-0.87401 0.79798-1.285 1.8129-1.2355 3.0351 0.0495 1.2231 0.5437 2.2873 1.4631 3.1618 0.95402 0.8408 2.03 1.2373 3.2452 1.2058 1.2151-0.0315 2.2429-0.48187 3.1006-1.3287 0.88969-0.87962 1.3251-1.8949 1.3018-3.049-0.0233-1.1528-0.49856-2.108-1.4358-2.9029-0.89927-0.82123-1.9758-1.2538-3.2119-1.2887zm0.54408 11.832c-5.6598 0.24409-9.9377 2.4958-12.623 7.2182-2.6627 4.683-3.2914 10.386-2.4742 16.368 0.6304 4.6146 1.2265 9.1775 1.7077 13.568 1.3024-0.81681 2.6584-1.5243 4.0574-2.1414-0.34056-4.089-0.77113-8.3161-1.2317-12.578-0.40716-3.7671-0.0806-7.1816 1.1442-10.07 1.2248-2.888 3.1989-4.8544 5.9347-5.9098 0.13256 0.97517 0.35767 1.87 0.6716 2.6779 0.3435 0.7664 0.67318 1.362 0.99051 1.7862 0.31477 0.38599 0.65791 0.73028 1.0298 1.0334 0.36971 0.26522 0.61965 0.42901 0.75194 0.49127 0.13204 0.0621 0.24698 0.10714 0.34488 0.13491-1.5527 2.7912-3.0304 5.6925-4.4356 8.7122 0.22512-0.0474 0.45079-0.0937 0.67696-0.13884 0.45219-0.0902 1.0167-0.13864 1.6943-0.13961 0.67771-1e-3 1.3626 0.0641 2.0525 0.19304 0.68988 0.12896 1.283 0.43384 1.7733 0.90566 0.49088 0.47234 0.75303 1.0896 0.7878 1.849 0.047 1.0263-0.20971 1.8964-0.75854 2.6284-0.55045 0.69395-1.3216 1.1244-2.3062 1.3098-1.3724 0.25843-2.5521 0.10197-3.5718-0.51417-0.20265 1.2065-0.71062 4.2609-0.91327 5.4674 0.204 0.0558 0.4083 0.11248 0.61287 0.17001 0.38301 0.12379 1.0004 0.17916 1.8756 0.19122 0.87475 0.0496 1.7958-0.0256 2.7666-0.21847 2.3292-0.46271 4.1417-1.3862 5.3961-2.9158 1.2814-1.5672 1.9072-3.5684 1.8294-6.0843-0.0325-1.0497-0.25326-2.0104-0.66498-2.882-0.41164-0.8714-0.86659-1.5328-1.3621-1.9816-0.49688-0.48645-1.0558-0.89127-1.6747-1.2115-0.62047-0.358-1.06-0.5604-1.3162-0.60941-0.22678-0.0905-0.42004-0.1459-0.57966-0.16643 1.1608-2.0661 2.3534-4.0758 3.5794-6.0338-0.0992-0.0312-0.23103-0.0603-0.39526-0.0873-0.13503-0.067-0.41525-0.21531-0.85137-0.44881-0.40359-0.27198-0.77674-0.58262-1.1199-0.93236-0.31246-0.38931-0.63266-0.92699-0.96184-1.612-0.33096-0.72199-0.55388-1.5432-0.66585-2.4578 3.5255 0.11294 6.3818 1.4208 8.4186 3.7825 2.0539 2.3815 3.0987 5.5279 3.1765 9.4747 0.0773 3.9222 0.14675 7.8596 0.19306 11.709 1.7028-0.0931 3.4294-0.15596 5.149-0.19141-0.0184-4.0349-0.047-8.1641-0.0786-12.267-0.0412-5.344-1.6866-9.712-5.0461-13.176-3.2956-3.3978-7.9842-5.1452-13.584-4.9037v-2e-5zm44.101-7e-3c-5.6013-0.23621-10.308 1.5272-13.636 4.961-3.358 3.4647-5.0008 7.8165-5.0392 13.123-0.0297 4.1025-0.0565 8.2312-0.0737 12.266 1.6882 0.0326 3.3834 0.0915 5.0561 0.1793 0.0445-3.8482 0.11127-7.7841 0.18555-11.705 0.0656-3.4602 0.90562-6.3253 2.5524-8.6163 1.6397-2.2811 3.9255-3.7396 6.7934-4.3297 0.0254 0.95131 0.15115 1.8422 0.37553 2.6726 0.25888 0.79567 0.52193 1.4307 0.79184 1.9015 0.27164 0.43317 0.57574 0.83432 0.91214 1.204 0.33922 0.33286 0.56738 0.5433 0.69238 0.6318 0.12406 0.0878 0.23288 0.15556 0.32675 0.20294-1.865 2.4372-3.6734 4.8535-5.4755 7.3037 0.23815 0.0198 0.47602 0.0402 0.71355 0.0613 0.4741 0.0421 1.0586 0.15344 1.7441 0.33938 0.68639 0.18614 1.3666 0.4363 2.0387 0.75227 0.67233 0.31611 1.2224 0.77946 1.6527 1.3863 0.43016 0.60665 0.61991 1.2991 0.5773 2.0654-0.0576 1.0354-0.38929 1.825-0.99394 2.375-0.60384 0.51291-1.4015 0.68692-2.4099 0.54663-1.4054-0.19551-2.6138-0.74472-3.6189-1.669-0.50681 1.627-0.99962 3.2298-1.4868 4.8291 0.21501 0.13117 0.42959 0.26304 0.6437 0.3956 0.39999 0.26374 1.0536 0.55091 1.9684 0.88735 0.91064 0.37209 1.862 0.6354 2.8518 0.79506 2.3694 0.3822 4.1465 0.0982 5.4362-1.0104 1.3146-1.1343 2.068-2.9825 2.2608-5.597 0.0804-1.0909-0.0168-2.1531-0.30282-3.1714-0.28624-1.019-0.63754-1.825-1.0557-2.4195-0.41513-0.6331-0.9012-1.1919-1.4601-1.6744-0.55483-0.51981-0.96171-0.83263-1.2038-0.94449-0.21027-0.14665-0.39272-0.24943-0.54628-0.30898 1.3684-1.7746 2.7483-3.5368 4.1577-5.3051-0.0912-0.053-0.21413-0.1106-0.36861-0.1723-0.13334-0.10616-0.36164-0.2981-0.7671-0.63305-0.35803-0.35838-0.68403-0.74642-0.97784-1.165-0.25939-0.45321-0.51023-1.0546-0.75532-1.8008-0.24264-0.78371-0.37-1.6429-0.37982-2.5788 3.4814 0.62266 6.0358 2.4244 7.651 5.4608 1.6166 3.039 2.0861 6.8182 1.629 11.11-0.45321 4.255-0.87667 8.4764-1.211 12.561 1.4309 0.61768 2.8177 1.328 4.149 2.1509 0.47558-4.3868 1.0653-8.9448 1.6892-13.554 0.81455-6.0175 0.17834-11.723-2.4938-16.387-2.6676-4.6563-6.9311-6.88-12.593-7.1188l1e-5 -2e-5zm-22.094 32.638c-3.1962 3e-3 -6.0315 1.0542-8.5035 3.091-2.4773 2.0412-4.2912 4.5948-5.5692 7.5189-1.2377 2.8648-1.908 5.7641-2.0565 8.4662-0.15737 2.8635 0.33734 4.8733 1.6545 6.2684 1.3101 1.3598 3.5546 1.8175 6.7357 1.6454 3.5279-0.19086 6.1756-1.1475 7.7329-3.3266 1.5527 2.1757 4.181 3.1287 7.6786 3.3093 3.1813 0.1643 5.4401-0.28439 6.8019-1.659 1.355-1.3955 1.8684-3.4043 1.7126-6.2677-0.14701-2.7017-0.83293-5.6017-2.103-8.4661-1.2491-2.9158-3.0659-5.467-5.5766-7.5042-2.4743-2.0314-5.3114-3.0783-8.5074-3.0757zm31 5.154c-0.0432 0.60816-0.0841 1.2126-0.12235 1.813-0.10053 1.5769-0.46709 2.6024-1.118 3.1245-0.65257 0.52338-1.481 0.56681-2.5246 0.18832-0.93492-0.33904-1.9834-0.94721-3.1482-1.8032-1.1848-0.834-1.9806-1.4025-2.4527-1.8408-0.45844-0.42562-0.81316-0.76397-1.0744-1.0339-0.68878 1.6729-1.3292 3.241-1.9826 4.8383 0.074 0.0643 0.14791 0.12877 0.22176 0.1933 3.1427 2.5023 6.2378 4.261 9.053 5.4025 4.509 1.8282 6.3396 0.89829 6.8692-5.5803 0.0849-1.0386 0.17912-2.0912 0.28142-3.156-1.2815-0.81772-2.6194-1.5268-4.0025-2.1457zm-30.999 0.88649c2.844-3e-3 5.2887 1.3495 7.4214 3.9212 2.149 2.5219 3.2527 5.3254 3.3535 8.1026 0.0555 1.5276-0.24708 2.6572-0.94198 3.4604-0.69489 0.80319-1.7135 1.14-3.0571 1.0742-1.4084-0.0689-2.5175-0.55094-3.2852-1.5109-0.7705-0.96343-1.1534-2.0558-1.1633-3.3094-1.5817-0.0256-3.1749-0.0236-4.756 6e-3 -0.0115 1.2536-0.37992 2.3468-1.1189 3.3112-0.7363 0.96084-1.8123 1.444-3.187 1.5136-1.342 0.068-2.3789-0.26897-3.1011-1.0649-0.72327-0.82653-1.0398-1.9556-0.984-3.4538 0.10343-2.7774 1.2063-5.5848 3.3537-8.1123 2.1628-2.5791 4.6218-3.9356 7.4661-3.9382z" stroke-linecap="round" stroke-linejoin="round" stroke-width="5.1196" style="paint-order:stroke fill markers;text-orientation:upright"/></g></svg>
